<svg width="28" height="28" viewBox="0 0 28 28" fill="none" xmlns="http://www.w3.org/2000/svg">
<g clip-path="url(#clip0_62_656)">
<path d="M25.6666 9.53318V3.5C25.6666 1.56652 24.1001 0 22.1666 0H5.83335C3.89987 0 2.33335 1.56652 2.33335 3.5V9.53318C0.973875 10.0136 0 11.309 0 12.8334V17.5V25.6666C0 26.955 1.04502 28 2.33335 28H4.6667C5.95498 28 7 26.955 7 25.6666V24.5H21V25.6666C21 26.955 22.045 28 23.3334 28H25.6667C26.955 28 28 26.955 28 25.6666V17.5V12.8334C28 11.309 27.0261 10.0136 25.6666 9.53318ZM4.66665 3.5C4.66665 2.85518 5.18848 2.33335 5.8333 2.33335H22.1666C22.8115 2.33335 23.3333 2.85518 23.3333 3.5V9.33335H20.9032C20.3476 6.02301 17.468 3.5 14 3.5C10.532 3.5 7.65237 6.02301 7.0968 9.33335H4.66665V3.5ZM18.5195 9.33335H9.48046C9.99868 7.32085 11.826 5.83335 14 5.83335C16.174 5.83335 18.0014 7.32085 18.5195 9.33335ZM2.33335 12.8334C2.33335 12.1885 2.85518 11.6667 3.5 11.6667H8.16665H19.8333H24.5C25.1448 11.6667 25.6666 12.1885 25.6666 12.8334V16.3334H2.33335V12.8334ZM23.3334 25.6666V23.3333C23.3334 22.689 22.811 22.1666 22.1667 22.1666H5.83335C5.18902 22.1666 4.6667 22.689 4.6667 23.3333V25.6666H2.33335V18.6666H25.6667V25.6666H23.3334Z" fill="#898121"/>
</g>
<defs>
<clipPath id="clip0_62_656">
<rect width="28" height="28" fill="white"/>
</clipPath>
</defs>
</svg>
