<svg width="32" height="32" viewBox="0 0 32 32" fill="none" xmlns="http://www.w3.org/2000/svg">
<path d="M21.9854 18.7103H17.0437V16.9261H20.5306C22.2658 16.9261 23.7296 15.5709 23.8629 13.8406L24.6523 3.59906C24.7236 2.67375 24.4029 1.7525 23.7724 1.07156C23.1418 0.390563 22.248 0 21.3199 0H10.6804C9.75238 0 8.8585 0.390563 8.228 1.07156C7.5975 1.75256 7.27675 2.67381 7.34813 3.59906L8.13744 13.8407C8.27082 15.5708 9.73457 16.9261 11.4698 16.9261H14.9567V18.7103H10.015C8.1945 18.7103 6.71338 20.1914 6.71338 22.0119C6.71338 23.8324 8.1945 25.3134 10.015 25.3134H14.9567V28.0696C13.2887 28.4091 11.8702 29.5495 11.1917 31.1662L13.116 31.9737C13.4654 31.1413 14.1408 30.5191 14.9567 30.2301V32H17.0436V30.2302C17.8596 30.5193 18.5349 31.1414 18.8843 31.9738L20.8086 31.1663C20.1301 29.5496 18.7115 28.4091 17.0436 28.0697V25.3135H21.9853C23.8058 25.3135 25.2869 23.8324 25.2869 22.0119C25.2869 20.1914 23.8059 18.7103 21.9854 18.7103ZM11.4698 14.8392C10.8181 14.8392 10.2683 14.3302 10.2182 13.6803L9.42894 3.43875C9.40175 3.08612 9.51913 2.74894 9.75938 2.48944C9.99975 2.22994 10.3268 2.087 10.6805 2.087H21.3199C21.6736 2.087 22.0007 2.22994 22.241 2.48944C22.4813 2.749 22.5986 3.08612 22.5714 3.43875L21.7821 13.6804C21.7321 14.3302 21.1822 14.8392 20.5305 14.8392H11.4698ZM21.9854 23.2265H10.015C9.34525 23.2265 8.80032 22.6816 8.80032 22.0118C8.80032 21.3421 9.34519 20.7972 10.015 20.7972H21.9853C22.6551 20.7972 23.2 21.3421 23.2 22.0119C23.2 22.6816 22.6551 23.2265 21.9854 23.2265Z" fill="#898121"/>
</svg>
