<svg width="28" height="28" viewBox="0 0 28 28" fill="none" xmlns="http://www.w3.org/2000/svg">
<path d="M25.6665 1.16663H2.33317C2.02375 1.16663 1.72701 1.28954 1.50821 1.50833C1.28942 1.72713 1.1665 2.02387 1.1665 2.33329V25.6666C1.1665 25.976 1.28942 26.2728 1.50821 26.4916C1.72701 26.7104 2.02375 26.8333 2.33317 26.8333H25.6665C25.9759 26.8333 26.2727 26.7104 26.4915 26.4916C26.7103 26.2728 26.8332 25.976 26.8332 25.6666V2.33329C26.8332 2.02387 26.7103 1.72713 26.4915 1.50833C26.2727 1.28954 25.9759 1.16663 25.6665 1.16663ZM24.4998 19.8333H15.1665V3.49996H24.4998V19.8333ZM3.49984 3.49996H12.8332V19.8333H3.49984V3.49996ZM24.4998 24.5H3.49984V22.1666H24.4998V24.5ZM11.6665 10.5V12.8333C11.6665 13.1427 11.5436 13.4395 11.3248 13.6583C11.106 13.877 10.8093 14 10.4998 14C10.1904 14 9.89367 13.877 9.67488 13.6583C9.45609 13.4395 9.33317 13.1427 9.33317 12.8333V10.5C9.33317 10.1905 9.45609 9.8938 9.67488 9.675C9.89367 9.45621 10.1904 9.33329 10.4998 9.33329C10.8093 9.33329 11.106 9.45621 11.3248 9.675C11.5436 9.8938 11.6665 10.1905 11.6665 10.5ZM16.3332 12.8333V10.5C16.3332 10.1905 16.4561 9.8938 16.6749 9.675C16.8937 9.45621 17.1904 9.33329 17.4998 9.33329C17.8093 9.33329 18.106 9.45621 18.3248 9.675C18.5436 9.8938 18.6665 10.1905 18.6665 10.5V12.8333C18.6665 13.1427 18.5436 13.4395 18.3248 13.6583C18.106 13.877 17.8093 14 17.4998 14C17.1904 14 16.8937 13.877 16.6749 13.6583C16.4561 13.4395 16.3332 13.1427 16.3332 12.8333Z" fill="#898121"/>
</svg>
