<svg width="32" height="32" viewBox="0 0 32 32" fill="none" xmlns="http://www.w3.org/2000/svg">
<g clip-path="url(#clip0_62_664)">
<path d="M18.0722 23.0563H17.084V13.2958H22.8917C23.4905 13.2958 23.976 12.8104 23.976 12.2115C23.976 11.6127 23.4906 11.1273 22.8917 11.1273H9.10815C8.50943 11.1273 8.02393 11.6127 8.02393 12.2115C8.02393 12.8104 8.50928 13.2958 9.10815 13.2958H14.9157V23.0563H13.9276C13.3288 23.0563 12.8433 23.5417 12.8433 24.1407C12.8433 24.7395 13.3287 25.2249 13.9276 25.2249H18.0722C18.6711 25.2249 19.1566 24.7395 19.1566 24.1407C19.1564 23.5417 18.6711 23.0563 18.0722 23.0563Z" fill="#898121"/>
<path d="M11.0051 18.0147C11.0051 17.416 10.5198 16.9305 9.92091 16.9305H8.17861H5.10388C3.45122 16.9305 3.10369 14.5231 3.08892 14.4143L2.15833 7.68407C2.07629 7.09087 1.52934 6.67755 0.93584 6.75855C0.342791 6.84058 -0.071567 7.38784 0.0103202 7.98104L0.939419 14.701C1.06337 15.6661 1.56096 17.176 2.63489 18.1515L1.51845 23.962C1.40539 24.55 1.79051 25.1183 2.37849 25.2312C2.96706 25.3447 3.53475 24.959 3.64766 24.3712L4.66074 19.0986H7.28277L8.29584 24.3712C8.39548 24.8901 8.84981 25.2507 9.35933 25.2507C9.4272 25.2507 9.49596 25.2443 9.56502 25.231C10.153 25.1181 10.5381 24.55 10.4251 23.9619L9.49059 19.0986H9.92061C10.5195 19.0989 11.0051 18.6134 11.0051 18.0147Z" fill="#898121"/>
<path d="M31.0646 6.75867C30.4717 6.67767 29.9241 7.09114 29.8421 7.68418L28.9107 14.4209C28.8967 14.5233 28.5492 16.9307 26.8965 16.9307H23.8218H22.0795C21.4808 16.9307 20.9951 17.4161 20.9951 18.0149C20.9951 18.6138 21.4806 19.0992 22.0795 19.0992H22.5095L21.575 23.9624C21.462 24.5504 21.8471 25.1187 22.4351 25.2316C23.0237 25.3451 23.5913 24.9594 23.7043 24.3716L24.7173 19.099H27.3394L28.3524 24.3716C28.4521 24.8905 28.9064 25.2512 29.4159 25.2512C29.4838 25.2512 29.5526 25.2447 29.6218 25.2315C30.2096 25.1186 30.5947 24.5504 30.4818 23.9623L29.3654 18.1522C30.439 17.1776 30.9363 15.6702 31.0593 14.7119L31.9898 7.98145C32.072 7.38811 31.6575 6.8407 31.0646 6.75867Z" fill="#898121"/>
</g>
<defs>
<clipPath id="clip0_62_664">
<rect width="32" height="32" fill="white"/>
</clipPath>
</defs>
</svg>
