<svg width="239" height="248" viewBox="0 0 239 248" fill="none" xmlns="http://www.w3.org/2000/svg">
<path fill-rule="evenodd" clip-rule="evenodd" d="M176.288 141.965L176.298 142.577L176.325 143.19L176.371 143.804L176.435 144.419L176.518 145.038L176.619 145.66L176.739 146.286L176.877 146.917L177.033 147.553L177.208 148.195L177.402 148.844L177.614 149.501L177.845 150.166L178.095 150.84L178.363 151.524L178.65 152.218L178.956 152.923L179.281 153.641L179.625 154.371L179.988 155.115L180.369 155.873L180.769 156.646L181.188 157.435L181.626 158.241L182.083 159.064L182.557 159.905L183.051 160.766L183.562 161.646L184.091 162.547L184.639 163.47L185.203 164.415L185.784 165.383L186.382 166.374L186.996 167.391L187.626 168.432L188.27 169.499L188.928 170.593L189.6 171.713L190.283 172.862L190.978 174.038L191.683 175.242L192.397 176.475L193.118 177.737L193.845 179.028L194.576 180.347L195.31 181.695L196.043 183.071L196.774 184.475L197.501 185.906L198.221 187.364L198.932 188.846L199.63 190.352L200.313 191.881L200.977 193.43L201.618 194.998L202.235 196.582L202.822 198.179L203.376 199.788L203.894 201.404L204.37 203.024L204.803 204.646L205.186 206.264L205.518 207.875L205.792 209.475L206.007 211.058L206.158 212.62L206.242 214.157L206.256 215.663L206.197 217.134L206.061 218.564L205.848 219.949L205.555 221.283L205.182 222.562L204.726 223.783L204.187 224.939L203.566 226.029L202.864 227.047L202.081 227.992L201.219 228.86L200.281 229.649L199.268 230.358L198.184 230.985L197.032 231.53L195.817 231.993L194.542 232.373L193.212 232.673L191.831 232.892L190.404 233.033L188.937 233.099L187.433 233.091L185.899 233.012L184.338 232.866L182.756 232.657L181.158 232.386L179.548 232.059L177.93 231.68L176.309 231.251L174.688 230.778L173.071 230.264L171.462 229.712L169.863 229.127L168.278 228.513L166.709 227.873L165.158 227.211L163.628 226.53L162.12 225.833L160.635 225.123L159.176 224.404L157.743 223.677L156.337 222.946L154.958 222.213L153.608 221.48L152.286 220.748L150.993 220.021L149.729 219.299L148.494 218.585L147.287 217.879L146.109 217.183L144.958 216.499L143.835 215.826L142.74 215.167L141.67 214.521L140.627 213.891L139.609 213.276L138.615 212.676L137.645 212.094L136.699 211.528L135.774 210.979L134.872 210.449L133.989 209.936L133.127 209.441L132.284 208.965L131.46 208.507L130.653 208.068L129.862 207.647L129.088 207.245L128.329 206.862L127.584 206.498L126.853 206.153L126.134 205.827L125.428 205.519L124.733 205.231L124.048 204.961L123.374 204.709L122.708 204.477L122.05 204.263L121.401 204.068L120.758 203.892L120.121 203.734L119.49 203.594L118.864 203.473L118.241 203.371L117.623 203.286L117.007 203.221L116.393 203.173L115.78 203.144L115.168 203.134L114.557 203.141L113.944 203.167L113.33 203.212L112.715 203.275L112.096 203.356L111.475 203.455L110.849 203.574L110.219 203.71L109.583 203.865L108.941 204.039L108.293 204.231L107.637 204.442L106.972 204.671L106.299 204.919L105.616 205.186L104.923 205.472L104.218 205.777L103.502 206.1L102.773 206.442L102.03 206.803L101.273 207.183L100.501 207.582L99.7134 207.999L98.9091 208.436L98.0874 208.891L97.2474 209.364L96.3884 209.856L95.5095 210.366L94.61 210.894L93.6892 211.439L92.7461 212.002L91.78 212.582L90.7902 213.179L89.776 213.792L88.7367 214.42L87.6716 215.063L86.5801 215.72L85.4616 216.391L84.3156 217.073L83.1417 217.768L81.9396 218.472L80.7088 219.185L79.4493 219.906L78.1609 220.632L76.8438 221.363L75.498 222.096L74.1239 222.829L72.7221 223.561L71.2931 224.289L69.8378 225.009L68.3573 225.721L66.8529 226.42L65.326 227.104L63.7784 227.769L62.2122 228.413L60.6294 229.032L59.0328 229.621L57.4251 230.178L55.8094 230.699L54.189 231.179L52.5675 231.615L50.9488 232.002L49.3371 232.338L47.7366 232.617L46.1518 232.837L44.5875 232.993L43.0485 233.083L41.5397 233.102L40.0661 233.049L38.6326 232.92L37.2441 232.713L35.9055 232.427L34.6214 232.059L33.3963 231.61L32.2343 231.078L31.1394 230.464L30.1151 229.768L29.1644 228.991L28.2902 228.135L27.4945 227.203L26.7792 226.196L26.1454 225.118L25.5939 223.971L25.1248 222.761L24.7378 221.491L24.4321 220.165L24.2064 218.788L24.0589 217.364L23.9876 215.9L23.9899 214.399L24.0629 212.867L24.2036 211.308L24.4085 209.728L24.674 208.131L24.9965 206.521L25.3721 204.904L25.7969 203.283L26.2668 201.662L26.7781 200.045L27.3267 198.435L27.9089 196.835L28.5208 195.249L29.1588 193.679L29.8194 192.126L30.4993 190.594L31.1951 189.084L31.9039 187.598L32.6227 186.137L33.3488 184.701L34.0796 183.293L34.8128 181.912L35.5462 180.56L36.2777 179.236L37.0054 177.941L37.7276 176.674L38.4427 175.437L39.1492 174.228L39.8459 173.047L40.5315 171.894L41.2051 170.769L41.8655 169.671L42.512 168.6L43.1438 167.555L43.7603 166.535L44.3608 165.539L44.9448 164.567L45.5119 163.619L46.0618 162.693L46.594 161.788L47.1082 160.905L47.6044 160.041L48.0822 159.196L48.5416 158.37L48.9823 157.562L49.4043 156.77L49.8076 155.995L50.192 155.234L50.5576 154.489L50.9043 153.756L51.2322 153.037L51.5413 152.329L51.8315 151.634L52.1029 150.948L52.3556 150.273L52.5895 149.606L52.8048 148.948L53.0014 148.298L53.1794 147.655L53.3389 147.017L53.4798 146.386L53.6023 145.759L53.7063 145.137L53.7919 144.518L53.8591 143.901L53.9079 143.287L53.9384 142.675L53.9505 142.063L53.9442 141.451L53.9196 140.839L53.8766 140.225L53.8153 139.61L53.7356 138.992L53.6374 138.37L53.5208 137.745L53.3858 137.115L53.2322 136.48L53.0601 135.839L52.8694 135.191L52.6601 134.535L52.4321 133.871L52.1854 133.199L51.92 132.517L51.6357 131.824L51.3327 131.121L51.0108 130.405L50.6701 129.677L50.3105 128.936L49.9321 128.18L49.5348 127.409L49.1187 126.623L48.684 125.82L48.2305 125L47.7586 124.161L47.2683 123.304L46.7597 122.426L46.2332 121.529L45.689 120.609L45.1273 119.668L44.5486 118.704L43.9533 117.716L43.3419 116.704L42.7149 115.667L42.073 114.604L41.4169 113.514L40.7474 112.398L40.0656 111.254L39.3723 110.082L38.6687 108.883L37.9562 107.654L37.2361 106.397L36.51 105.111L35.7795 103.796L35.0465 102.453L34.313 101.081L33.5812 99.6811L32.8533 98.2542L32.1319 96.801L31.4196 95.3225L30.7193 93.82L30.034 92.2948L29.3669 90.7489L28.7213 89.184L28.1007 87.6025L27.5087 86.0069L26.949 84.4L26.4254 82.7848L25.9418 81.1647L25.5023 79.5432L25.1106 77.9241L24.7708 76.3117L24.4866 74.7101L24.262 73.124L24.1005 71.5579L24.0056 70.0168L23.9805 68.5054L24.0281 67.0288L24.151 65.5919L24.3516 64.1997L24.6317 62.8569L24.9926 61.5684L25.4355 60.3384L25.9608 59.1713L26.5684 58.0709L27.2579 57.0408L28.0281 56.0842L28.8776 55.2038L29.8041 54.4019L30.8053 53.6801L31.8781 53.0398L33.0191 52.4817L34.2245 52.0061L35.4903 51.6126L36.8121 51.3004L38.1852 51.0684L39.6049 50.9148L41.0663 50.8375L42.5644 50.834L44.0943 50.9015L45.6511 51.0369L47.2298 51.2368L48.8258 51.4977L50.4345 51.8158L52.0514 52.1873L53.6724 52.6082L55.2936 53.0748L56.9112 53.5829L58.5218 54.1286L60.1223 54.7083L61.7097 55.3179L63.2815 55.954L64.8352 56.6129L66.3689 57.2914L67.8807 57.986L69.3689 58.6939L70.8324 59.4119L72.2698 60.1376L73.6804 60.8681L75.0634 61.6012L76.4182 62.3347L77.7445 63.0664L79.042 63.7944L80.3107 64.5171L81.5506 65.2328L82.7619 65.9401L83.9448 66.6376L85.0996 67.3241L86.2268 67.9986L87.3268 68.6601L88.4003 69.3078L89.4477 69.9408L90.4699 70.5585L91.4673 71.1603L92.4409 71.7456L93.3912 72.3141L94.3191 72.8653L95.2253 73.3989L96.1106 73.9146L96.9759 74.4122L97.8218 74.8915L98.6493 75.3523L99.4591 75.7945L100.252 76.218L101.029 76.6228L101.79 77.0087L102.537 77.3758L103.271 77.724L103.991 78.0534L104.7 78.364L105.396 78.6557L106.083 78.9286L106.759 79.1827L107.426 79.4182L108.085 79.6349L108.736 79.833L109.379 80.0125L110.017 80.1735L110.649 80.3159L111.276 80.4398L111.899 80.5453L112.518 80.6324L113.135 80.701L113.749 80.7513L114.362 80.7832L114.973 80.7968L115.585 80.792L116.197 80.7688L116.811 80.7273L117.426 80.6674L118.044 80.5892L118.665 80.4925L119.29 80.3774L119.92 80.2438L120.554 80.0917L121.195 79.9211L121.843 79.7319L122.498 79.5241L123.16 79.2976L123.832 79.0524L124.514 78.7884L125.205 78.5057L125.908 78.2041L126.623 77.8838L127.35 77.5445L128.09 77.1865L128.845 76.8095L129.614 76.4138L130.399 75.9992L131.201 75.5659L132.02 75.114L132.857 74.6435L133.713 74.1546L134.588 73.6476L135.484 73.1225L136.402 72.5796L137.341 72.0194L138.304 71.442L139.29 70.848L140.3 70.2379L141.335 69.6121L142.396 68.9713L143.483 68.3164L144.598 67.648L145.739 66.967L146.909 66.2746L148.106 65.5719L149.332 64.86L150.587 64.1405L151.871 63.4148L153.184 62.6846L154.525 61.9517L155.895 61.2182L157.292 60.4861L158.717 59.7579L160.168 59.0359L161.644 58.3228L163.145 57.6214L164.669 56.9349L166.213 56.2662L167.776 55.6188L169.357 54.996L170.951 54.4016L172.557 53.8392L174.172 53.3126L175.792 52.8257L177.414 52.3825L179.033 51.9868L180.646 51.6428L182.249 51.3541L183.836 51.1246L185.404 50.9579L186.947 50.8576L188.461 50.8268L189.941 50.8685L191.381 50.9853L192.777 51.1797L194.124 51.4533L195.417 51.8078L196.652 52.2442L197.824 52.7629L198.93 53.364L199.966 54.0469L200.928 54.8108L201.815 55.6539L202.623 56.5744L203.351 57.5698L203.998 58.637L204.563 59.7727L205.045 60.9731L205.445 62.2342L205.764 63.5517L206.002 64.9208L206.162 66.337L206.245 67.7952L206.254 69.2906L206.193 70.8182L206.062 72.3729L205.868 73.9501L205.611 75.5449L205.298 77.1526L204.93 78.769L204.513 80.3899L204.05 82.0111L203.545 83.6291L203.002 85.2404L202.425 86.8418L201.818 88.4303L201.184 90.0034L200.526 91.5587L199.849 93.094L199.156 94.6075L198.449 96.0977L197.732 97.5631L197.006 99.0027L196.276 100.415L195.543 101.801L194.81 103.158L194.078 104.486L193.349 105.786L192.626 107.057L191.91 108.299L191.202 109.513L190.504 110.698L189.816 111.855L189.141 112.984L188.478 114.086L187.829 115.162L187.195 116.211L186.576 117.236L185.973 118.235L185.386 119.21L184.816 120.162L184.264 121.092L183.729 122L183.212 122.887L182.713 123.754L182.232 124.601L181.77 125.43L181.326 126.241L180.901 127.035L180.495 127.814L180.107 128.576L179.739 129.325L179.389 130.059L179.058 130.78L178.746 131.49L178.453 132.187L178.178 132.874L177.923 133.551L177.686 134.219L177.467 134.878L177.268 135.53L177.087 136.174L176.924 136.812L176.781 137.445L176.655 138.072L176.548 138.695L176.46 139.315L176.39 139.931L176.338 140.546L176.304 141.159L176.289 141.771L176.288 141.965Z" fill="#E7B10A" fill-opacity="0.78"/>
<path fill-rule="evenodd" clip-rule="evenodd" d="M230.008 123.994L230.14 125.153L230.507 126.319L231.069 127.5L231.785 128.698L232.615 129.917L233.52 131.159L234.459 132.422L235.391 133.706L236.278 135.006L237.078 136.317L237.753 137.634L238.267 138.947L238.586 140.249L238.68 141.528L238.521 142.775L238.089 143.978L237.369 145.127L236.351 146.212L235.034 147.222L233.42 148.15L231.522 148.989L229.356 149.733L226.944 150.379L224.314 150.927L221.495 151.377L218.522 151.731L215.43 151.995L212.254 152.174L209.029 152.276L205.789 152.309L202.566 152.283L199.391 152.207L196.288 152.092L193.283 151.949L190.395 151.787L187.643 151.617L185.041 151.449L182.601 151.292L180.334 151.156L178.246 151.049L176.345 150.98L174.635 150.958L173.122 150.992L171.81 151.089L170.703 151.261L169.806 151.516L169.126 151.866L168.671 152.323L168.449 152.9L168.474 153.614L168.762 154.483L169.333 155.529L170.212 156.78L171.431 158.267L173.03 160.029L175.059 162.115L177.582 164.584L180.676 167.511L184.443 170.989L189.01 175.136L194.539 180.105L201.24 186.093L206.24 191.062L197.416 185.911L190.131 181.675L184.084 178.188L179.045 175.324L174.835 172.982L171.313 171.085L168.369 169.573L165.914 168.395L163.877 167.515L162.203 166.902L160.843 166.532L159.761 166.386L158.925 166.45L158.31 166.712L157.895 167.164L157.66 167.8L157.592 168.615L157.676 169.605L157.901 170.769L158.256 172.105L158.731 173.612L159.316 175.288L160.002 177.13L160.778 179.138L161.634 181.306L162.559 183.629L163.541 186.101L164.566 188.711L165.62 191.449L166.688 194.299L167.753 197.244L168.797 200.264L169.803 203.335L170.751 206.432L171.623 209.527L172.401 212.588L173.066 215.585L173.603 218.486L173.996 221.259L174.235 223.874L174.309 226.302L174.213 228.518L173.944 230.503L173.502 232.239L172.893 233.716L172.123 234.931L171.204 235.883L170.149 236.581L168.973 237.038L167.695 237.272L166.333 237.307L164.905 237.169L163.431 236.889L161.929 236.501L160.417 236.039L158.912 235.541L157.429 235.043L155.983 234.583L154.584 234.2L153.244 233.932L151.972 233.819L150.775 233.9L149.66 234.216L148.623 234.78L147.645 235.558L146.708 236.512L145.797 237.606L144.896 238.803L143.992 240.065L143.075 241.353L142.133 242.627L141.158 243.85L140.144 244.981L139.086 245.982L137.979 246.818L136.823 247.452L135.619 247.855L134.37 248L133.078 247.865L131.752 247.434L130.398 246.698L129.024 245.654L127.641 244.304L126.258 242.661L124.885 240.739L123.533 238.562L122.21 236.156L120.925 233.551L119.685 230.782L118.497 227.882L117.365 224.889L116.291 221.838L115.28 218.762L114.329 215.696L113.44 212.668L112.61 209.708L111.836 206.839L111.115 204.083L110.442 201.459L109.811 198.984L109.219 196.671L108.658 194.532L108.122 192.576L107.606 190.812L107.102 189.247L106.604 187.889L106.104 186.743L105.594 185.819L105.068 185.123L104.515 184.666L103.927 184.459L103.293 184.518L102.601 184.86L101.838 185.508L100.988 186.49L100.032 187.841L98.9495 189.604L97.7125 191.833L96.289 194.595L94.639 197.975L92.7126 202.08L90.4471 207.043L87.7626 213.036L84.5564 220.278L80.6953 229.054L79.6756 228.625L81.7065 219.271L83.3665 211.541L84.7147 205.125L85.7969 199.787L86.649 195.341L87.2994 191.643L87.7699 188.576L88.0778 186.05L88.2366 183.992L88.2564 182.341L88.1448 181.049L87.9073 180.079L87.5477 179.398L87.0683 178.98L86.4701 178.804L85.7532 178.851L84.917 179.106L83.9603 179.556L82.8814 180.19L81.6786 180.998L80.35 181.969L78.8942 183.094L77.3102 184.363L75.5978 185.765L73.7576 187.289L71.7918 188.922L69.7041 190.65L67.4997 192.456L65.1863 194.322L62.7738 196.23L60.2742 198.157L57.7025 200.079L55.0758 201.972L52.4139 203.809L49.7384 205.564L47.073 207.21L44.4426 208.72L41.8728 210.071L39.389 211.238L37.0163 212.203L34.7777 212.948L32.6943 213.463L30.7838 213.74L29.0604 213.775L27.5338 213.573L26.2093 213.14L25.0872 212.488L24.1629 211.634L23.4274 210.599L22.8669 209.405L22.4639 208.078L22.197 206.645L22.0423 205.133L21.9731 203.571L21.9609 201.986L21.9756 200.405L21.9861 198.854L21.9603 197.356L21.8652 195.936L21.6673 194.614L21.3317 193.411L20.8222 192.347L20.1043 191.437L19.1822 190.669L18.0849 190.014L16.8423 189.444L15.4847 188.932L14.0434 188.453L12.5508 187.985L11.0403 187.503L9.54632 186.988L8.10371 186.419L6.74757 185.778L5.51249 185.049L4.43187 184.219L3.53714 183.278L2.85683 182.216L2.41582 181.03L2.23449 179.718L2.32805 178.282L2.70602 176.727L3.37186 175.062L4.32289 173.298L5.55035 171.448L7.0398 169.526L8.77163 167.551L10.7218 165.539L12.8626 163.507L15.1638 161.473L17.5933 159.454L20.1184 157.463L22.7065 155.516L25.3256 153.622L27.9454 151.794L30.5375 150.038L33.0759 148.361L35.5369 146.766L37.8996 145.258L40.1454 143.836L42.2582 142.501L44.2239 141.251L46.0304 140.084L47.6668 138.996L49.1235 137.985L50.3916 137.046L51.4622 136.175L52.3266 135.365L52.9749 134.614L53.3963 133.915L53.5782 133.264L53.5053 132.654L53.1593 132.081L52.518 131.538L51.5538 131.021L50.233 130.521L48.514 130.033L46.345 129.548L43.6621 129.057L40.3853 128.55L36.4145 128.014L31.624 127.433L25.8541 126.788L18.9012 126.053L10.5031 125.197L0.319336 124.176L7.47193 123.096L16.3974 122.193L23.779 121.423L29.9011 120.753L34.9844 120.154L39.2012 119.605L42.6871 119.091L45.5497 118.596L47.8747 118.11L49.7309 117.624L51.1736 117.129L52.2474 116.617L52.9883 116.083L53.4257 115.52L53.5834 114.923L53.4809 114.285L53.1343 113.602L52.557 112.868L51.7604 112.078L50.7544 111.227L49.5483 110.31L48.1507 109.322L46.5705 108.259L44.8172 107.118L42.9009 105.895L40.8336 104.587L38.6285 103.193L36.3011 101.712L33.8693 100.145L31.3531 98.4935L28.7753 96.762L26.1614 94.9558L23.5388 93.0822L20.9375 91.1507L18.3888 89.1724L15.9253 87.1604L13.5797 85.1294L11.3844 83.0953L9.37037 81.075L7.5662 79.086L5.99719 77.1458L4.68445 75.2711L3.64414 73.4777L2.88687 71.7796L2.41729 70.1888L2.23388 68.7143L2.32904 67.3625L2.68931 66.1363L3.29589 65.0355L4.12527 64.0563L5.14997 63.192L6.33939 62.4325L7.66069 61.7652L9.07955 61.175L10.561 60.6445L12.07 60.1544L13.5719 59.6841L15.0331 59.2113L16.4208 58.7127L17.7034 58.1637L18.8502 57.5384L19.8314 56.8095L20.6173 55.9481L21.1901 54.9317L21.5771 53.771L21.815 52.485L21.9391 51.0938L21.9833 49.6186L21.9809 48.082L21.9641 46.5077L21.9644 44.9212L22.0123 43.3487L22.1368 41.8179L22.3652 40.3565L22.7224 38.9926L23.2306 37.7534L23.9087 36.6649L24.7716 35.7512L25.83 35.0332L27.0899 34.5289L28.5524 34.2519L30.214 34.2111L32.0662 34.4109L34.0963 34.8503L36.2876 35.5236L38.62 36.4201L41.0711 37.5249L43.6162 38.8192L46.2302 40.2813L48.8871 41.8868L51.562 43.6099L54.2307 45.4239L56.8709 47.302L59.4621 49.2177L61.9864 51.1456L64.4281 53.0617L66.7742 54.9437L69.0142 56.7712L71.1398 58.5255L73.145 60.1901L75.0254 61.7502L76.7787 63.1925L78.4036 64.505L79.9002 65.6769L81.2691 66.6981L82.5118 67.5589L83.63 68.2495L84.6255 68.7596L85.4999 69.0783L86.2546 69.1931L86.8906 69.0895L87.4079 68.7506L87.8059 68.1559L88.0826 67.281L88.2348 66.096L88.2576 64.5644L88.1441 62.6413L87.8849 60.2714L87.4678 57.3862L86.8769 53.9003L86.0918 49.7068L85.0864 44.6708L83.8274 38.6213L82.2724 31.3391L80.367 22.5412L79.3008 15.7596L83.405 25.0969L86.8036 32.7931L89.6418 39.1574L92.0312 44.428L94.0581 48.7898L95.7902 52.3881L97.2811 55.3372L98.5736 57.728L99.7025 59.6329L100.696 61.1097L101.577 62.2051L102.366 62.9562L103.079 63.3931L103.73 63.5401L104.332 63.4163L104.895 63.0377L105.429 62.4167L105.943 61.5639L106.445 60.4879L106.943 59.1965L107.444 57.6967L107.956 55.9953L108.485 54.0996L109.037 52.0177L109.619 49.7588L110.237 47.334L110.896 44.7561L111.601 42.0406L112.358 39.2054L113.17 36.2713L114.04 33.2623L114.97 30.205L115.962 27.129L117.016 24.0663L118.13 21.0508L119.301 18.1178L120.525 15.3031L121.796 12.6423L123.108 10.1694L124.452 7.91611L125.819 5.91049L127.2 4.17628L128.584 2.73182L129.962 1.58946L131.323 0.755053L132.659 0.22775L133.962 0L135.226 0.0578312L136.445 0.381331L137.616 0.945314L138.738 1.72011L139.812 2.67245L140.84 3.76635L141.826 4.96397L142.778 6.22638L143.702 7.51426L144.609 8.7884L145.509 10.01L146.416 11.1411L147.343 12.144L148.306 12.9819L149.322 13.6177L150.411 14.0148L151.582 14.1664L152.831 14.1106L154.15 13.8878L155.531 13.5373L156.964 13.098L158.437 12.608L159.936 12.1056L161.447 11.6282L162.954 11.2127L164.439 10.8948L165.884 10.7082L167.27 10.6846L168.577 10.8523L169.787 11.236L170.882 11.8555L171.846 12.7259L172.664 13.8565L173.326 15.2504L173.822 16.9051L174.146 18.8119L174.297 20.9565L174.277 23.3196L174.09 25.8776L173.744 28.6033L173.252 31.4668L172.626 34.4369L171.882 37.4814L171.038 40.5688L170.112 43.6682L169.123 46.7507L168.088 49.7896L167.028 52.7608L165.959 55.6431L164.899 58.4181L163.863 61.0703L162.866 63.5873L161.922 65.9588L161.043 68.177L160.24 70.2361L159.524 72.1318L158.906 73.861L158.395 75.4216L158 76.8121L157.733 78.0312L157.603 79.0772L157.621 79.9482L157.801 80.6412L158.157 81.1523L158.707 81.4757L159.469 81.6037L160.47 81.526L161.737 81.2292L163.307 80.6958L165.223 79.9038L167.537 78.825L170.317 77.4238L173.644 75.6555L177.621 73.4631L182.379 70.7747L188.083 67.4986L194.945 63.5171L203.241 58.6785L203.663 59.7346L196.534 66.097L190.658 71.3668L185.804 75.7578L181.798 79.4347L178.501 82.5257L175.806 85.1317L173.627 87.3326L171.897 89.1922L170.562 90.7622L169.578 92.0842L168.912 93.1925L168.537 94.1154L168.43 94.8764L168.574 95.4952L168.956 95.9886L169.566 96.3711L170.394 96.6554L171.435 96.8526L172.682 96.973L174.132 97.026L175.779 97.0208L177.62 96.966L179.649 96.8701L181.86 96.7421L184.246 96.5907L186.798 96.4251L189.503 96.2547L192.349 96.0893L195.319 95.939L198.393 95.8141L201.548 95.725L204.759 95.6819L207.997 95.695L211.23 95.7739L214.426 95.9274L217.549 96.1633L220.563 96.4882L223.435 96.9072L226.129 97.4236L228.613 98.0387L230.86 98.7521L232.846 99.5611L234.552 100.461L235.964 101.446L237.077 102.508L237.892 103.637L238.414 104.825L238.658 106.059L238.642 107.329L238.392 108.625L237.936 109.935L237.308 111.252L236.544 112.566L235.681 113.87L234.759 115.159L233.817 116.429L232.897 117.678L232.039 118.904L231.282 120.109L230.667 121.295L230.233 122.465L230.022 123.625L230.008 123.994Z" fill="#898121" fill-opacity="0.9"/>
<path d="M115 99.4404L112.478 101.846C112.494 101.862 112.51 101.878 112.525 101.894L115 99.4404ZM121.859 111.14C123.226 112.495 125.442 112.494 126.808 111.139C128.175 109.785 128.175 107.588 126.807 106.234L121.859 111.14ZM102.988 158.739C95.9148 153.213 88.1807 147.816 82.045 140.969C76.0294 134.255 71.833 126.422 71.833 116.259H64.833C64.833 128.587 70.0153 137.992 76.811 145.576C83.4867 153.025 91.9966 158.985 98.6543 164.187L102.988 158.739ZM71.833 116.259C71.833 106.311 77.5047 97.9691 85.2467 94.4618C92.768 91.0546 102.874 91.9569 112.478 101.846L117.522 97.0349C106.126 85.3012 92.8988 83.3674 82.3366 88.1523C71.995 92.8372 64.833 103.716 64.833 116.259H71.833ZM98.6543 164.187C101.045 166.055 103.611 168.046 106.211 169.552C108.811 171.057 111.778 172.281 115 172.281V165.344C113.555 165.344 111.855 164.785 109.743 163.562C107.632 162.34 105.443 160.657 102.988 158.739L98.6543 164.187ZM131.345 164.187C138.003 158.985 146.513 153.025 153.188 145.576C159.984 137.992 165.166 128.587 165.166 116.259H158.166C158.166 126.422 153.97 134.255 147.954 140.969C141.819 147.816 134.084 153.213 127.012 158.739L131.345 164.187ZM165.166 116.259C165.166 103.716 158.004 92.8372 147.663 88.1523C137.101 83.3674 123.873 85.3012 112.478 97.0349L117.522 101.846C127.125 91.9569 137.231 91.0546 144.752 94.4618C152.494 97.9691 158.166 106.311 158.166 116.259H165.166ZM127.012 158.739C124.557 160.657 122.367 162.34 120.256 163.562C118.145 164.785 116.444 165.344 115 165.344V172.281C118.222 172.281 121.188 171.057 123.788 169.552C126.389 168.046 128.954 166.055 131.345 164.187L127.012 158.739ZM112.525 101.894L121.859 111.14L126.807 106.234L117.474 96.9872L112.525 101.894Z" fill="white"/>
</svg>
