<svg width="22" height="20" viewBox="0 0 22 20" fill="none" xmlns="http://www.w3.org/2000/svg">
<path d="M11 3.50054L10.4596 4.02064C10.463 4.02412 10.4664 4.02756 10.4698 4.03097L11 3.50054ZM12.4698 6.03025C12.7627 6.32309 13.2376 6.323 13.5304 6.03005C13.8233 5.73711 13.8232 5.26223 13.5302 4.96939L12.4698 6.03025ZM8.42605 16.3218C6.91039 15.127 5.25307 13.9602 3.93829 12.4797C2.64922 11.0281 1.75 9.33441 1.75 7.13701H0.25C0.25 9.80251 1.3605 11.836 2.81672 13.4757C4.24723 15.0865 6.07077 16.3751 7.49742 17.4998L8.42605 16.3218ZM1.75 7.13701C1.75 4.98614 2.96537 3.18243 4.62436 2.4241C6.23607 1.68739 8.40166 1.88249 10.4596 4.02064L11.5404 2.98044C9.0985 0.443431 6.26409 0.0253011 4.00076 1.05987C1.78471 2.07283 0.25 4.42494 0.25 7.13701H1.75ZM7.49742 17.4998C8.00965 17.9036 8.55954 18.3342 9.1168 18.6598C9.6739 18.9853 10.3096 19.2499 11 19.2499V17.7499C10.6904 17.7499 10.3261 17.6292 9.8736 17.3647C9.4213 17.1004 8.95208 16.7365 8.42605 16.3218L7.49742 17.4998ZM14.5026 17.4998C15.9292 16.3751 17.7528 15.0865 19.1833 13.4757C20.6395 11.836 21.75 9.80251 21.75 7.13701H20.25C20.25 9.33441 19.3508 11.0281 18.0617 12.4797C16.7469 13.9602 15.0896 15.127 13.574 16.3218L14.5026 17.4998ZM21.75 7.13701C21.75 4.42494 20.2153 2.07283 17.9992 1.05987C15.7359 0.0253011 12.9015 0.443431 10.4596 2.98044L11.5404 4.02064C13.5983 1.88249 15.7639 1.68739 17.3756 2.4241C19.0346 3.18243 20.25 4.98614 20.25 7.13701H21.75ZM13.574 16.3218C13.0479 16.7365 12.5787 17.1004 12.1264 17.3647C11.6739 17.6292 11.3096 17.7499 11 17.7499V19.2499C11.6904 19.2499 12.3261 18.9853 12.8832 18.6598C13.4405 18.3342 13.9903 17.9036 14.5026 17.4998L13.574 16.3218ZM10.4698 4.03097L12.4698 6.03025L13.5302 4.96939L11.5302 2.97012L10.4698 4.03097Z" fill="white"/>
</svg>
