<svg width="24" height="24" viewBox="0 0 24 24" fill="none" xmlns="http://www.w3.org/2000/svg">
<path d="M8.10627 18.2466C5.29819 16.0831 2 13.542 2 9.13686C2 4.27392 7.50016 0.825221 12 5.50039L14 7.49904C14.2929 7.79188 14.7678 7.79179 15.0607 7.49884C15.3535 7.2059 15.3534 6.73103 15.0605 6.43819L13.1285 4.50688C17.3685 1.40285 22 4.67441 22 9.13686C22 13.542 18.7018 16.0831 15.8937 18.2466C15.6019 18.4715 15.3153 18.6923 15.0383 18.9107C14 19.7292 13 20.4998 12 20.4998C11 20.4998 10 19.7292 8.96173 18.9107C8.68471 18.6923 8.39814 18.4715 8.10627 18.2466Z" fill="white"/>
</svg>
