<svg width="32" height="32" viewBox="0 0 32 32" fill="none" xmlns="http://www.w3.org/2000/svg">
<g clip-path="url(#clip0_62_660)">
<path d="M25.9648 12.3613L23.2981 1.028C23.1561 0.426 22.6188 0 22.0001 0H10.0001C9.38143 0 8.84409 0.426 8.70209 1.028L6.03543 12.3613C5.9421 12.758 6.03543 13.1753 6.28876 13.4947C6.54143 13.814 6.92609 14 7.33343 14H14.6668V29.3333H10.6668C9.93076 29.3333 9.33343 29.9307 9.33343 30.6667C9.33343 31.4027 9.93076 32 10.6668 32H21.3334C22.0694 32 22.6668 31.4027 22.6668 30.6667C22.6668 29.9307 22.0694 29.3333 21.3334 29.3333H17.3334V14H18.6668V16C18.6668 16.736 19.2641 17.3333 20.0001 17.3333C20.7361 17.3333 21.3334 16.736 21.3334 16V14H24.6668C25.0741 14 25.4588 13.814 25.7114 13.4947C25.9648 13.1753 26.0581 12.758 25.9648 12.3613ZM9.01676 11.3333L11.0561 2.66667H20.9441L22.9834 11.3333H9.01676Z" fill="#898121"/>
</g>
<defs>
<clipPath id="clip0_62_660">
<rect width="32" height="32" fill="white"/>
</clipPath>
</defs>
</svg>
