<svg width="239" height="248" viewBox="0 0 239 248" fill="none" xmlns="http://www.w3.org/2000/svg">
<path fill-rule="evenodd" clip-rule="evenodd" d="M176.288 141.965L176.298 142.577L176.325 143.19L176.371 143.804L176.435 144.419L176.518 145.038L176.619 145.66L176.739 146.286L176.877 146.917L177.033 147.553L177.208 148.195L177.402 148.844L177.614 149.501L177.845 150.166L178.095 150.84L178.363 151.524L178.65 152.218L178.956 152.923L179.281 153.641L179.625 154.371L179.988 155.115L180.369 155.873L180.769 156.646L181.188 157.435L181.626 158.241L182.083 159.064L182.557 159.905L183.051 160.766L183.562 161.646L184.091 162.547L184.639 163.47L185.203 164.415L185.784 165.383L186.382 166.374L186.996 167.391L187.626 168.432L188.27 169.499L188.928 170.593L189.6 171.713L190.283 172.862L190.978 174.038L191.683 175.242L192.397 176.475L193.118 177.737L193.845 179.028L194.576 180.347L195.31 181.695L196.043 183.071L196.774 184.475L197.501 185.906L198.221 187.364L198.932 188.846L199.63 190.352L200.313 191.881L200.977 193.43L201.618 194.998L202.235 196.582L202.822 198.179L203.376 199.788L203.894 201.404L204.37 203.024L204.803 204.646L205.186 206.264L205.518 207.875L205.792 209.475L206.007 211.058L206.158 212.62L206.242 214.157L206.256 215.663L206.197 217.134L206.061 218.564L205.848 219.949L205.555 221.283L205.182 222.562L204.726 223.783L204.187 224.939L203.566 226.029L202.864 227.047L202.081 227.992L201.219 228.86L200.281 229.649L199.268 230.358L198.184 230.985L197.032 231.53L195.817 231.993L194.542 232.373L193.212 232.673L191.831 232.892L190.404 233.033L188.937 233.099L187.433 233.091L185.899 233.012L184.338 232.866L182.756 232.657L181.158 232.386L179.548 232.059L177.93 231.68L176.309 231.251L174.688 230.778L173.071 230.264L171.462 229.712L169.863 229.127L168.278 228.513L166.709 227.873L165.158 227.211L163.628 226.53L162.12 225.833L160.635 225.123L159.176 224.404L157.743 223.677L156.337 222.946L154.958 222.213L153.608 221.48L152.286 220.748L150.993 220.021L149.729 219.299L148.494 218.585L147.287 217.879L146.109 217.183L144.958 216.499L143.835 215.826L142.74 215.167L141.67 214.521L140.627 213.891L139.609 213.276L138.615 212.676L137.645 212.094L136.699 211.528L135.774 210.979L134.872 210.449L133.989 209.936L133.127 209.441L132.284 208.965L131.46 208.507L130.653 208.068L129.862 207.647L129.088 207.245L128.329 206.862L127.584 206.498L126.853 206.153L126.134 205.827L125.428 205.519L124.733 205.231L124.048 204.961L123.374 204.709L122.708 204.477L122.05 204.263L121.401 204.068L120.758 203.892L120.121 203.734L119.49 203.594L118.864 203.473L118.241 203.371L117.623 203.286L117.007 203.221L116.393 203.173L115.78 203.144L115.168 203.134L114.557 203.141L113.944 203.167L113.33 203.212L112.715 203.275L112.096 203.356L111.475 203.455L110.849 203.574L110.219 203.71L109.583 203.865L108.941 204.039L108.293 204.231L107.637 204.442L106.972 204.671L106.299 204.919L105.616 205.186L104.923 205.472L104.218 205.777L103.502 206.1L102.773 206.442L102.03 206.803L101.273 207.183L100.501 207.582L99.7134 207.999L98.9091 208.436L98.0874 208.891L97.2474 209.364L96.3884 209.856L95.5095 210.366L94.61 210.894L93.6892 211.439L92.7461 212.002L91.78 212.582L90.7902 213.179L89.776 213.792L88.7367 214.42L87.6716 215.063L86.5801 215.72L85.4616 216.391L84.3156 217.073L83.1417 217.768L81.9396 218.472L80.7088 219.185L79.4493 219.906L78.1609 220.632L76.8438 221.363L75.498 222.096L74.1239 222.829L72.7221 223.561L71.2931 224.289L69.8378 225.009L68.3573 225.721L66.8529 226.42L65.326 227.104L63.7784 227.769L62.2122 228.413L60.6294 229.032L59.0328 229.621L57.4251 230.178L55.8094 230.699L54.189 231.179L52.5675 231.615L50.9488 232.002L49.3371 232.338L47.7366 232.617L46.1518 232.837L44.5875 232.993L43.0485 233.083L41.5397 233.102L40.0661 233.049L38.6326 232.92L37.2441 232.713L35.9055 232.427L34.6214 232.059L33.3963 231.61L32.2343 231.078L31.1394 230.464L30.1151 229.768L29.1644 228.991L28.2902 228.135L27.4945 227.203L26.7792 226.196L26.1454 225.118L25.5939 223.971L25.1248 222.761L24.7378 221.491L24.4321 220.165L24.2064 218.788L24.0589 217.364L23.9876 215.9L23.9899 214.399L24.0629 212.867L24.2036 211.308L24.4085 209.728L24.674 208.131L24.9965 206.521L25.3721 204.904L25.7969 203.283L26.2668 201.662L26.7781 200.045L27.3267 198.435L27.9089 196.835L28.5208 195.249L29.1588 193.679L29.8194 192.126L30.4993 190.594L31.1951 189.084L31.9039 187.598L32.6227 186.137L33.3488 184.701L34.0796 183.293L34.8128 181.912L35.5462 180.56L36.2777 179.236L37.0054 177.941L37.7276 176.674L38.4427 175.437L39.1492 174.228L39.8459 173.047L40.5315 171.894L41.2051 170.769L41.8655 169.671L42.512 168.6L43.1438 167.555L43.7603 166.535L44.3608 165.539L44.9448 164.567L45.5119 163.619L46.0618 162.693L46.594 161.788L47.1082 160.905L47.6044 160.041L48.0822 159.196L48.5416 158.37L48.9823 157.562L49.4043 156.77L49.8076 155.995L50.192 155.234L50.5576 154.489L50.9043 153.756L51.2322 153.037L51.5413 152.329L51.8315 151.634L52.1029 150.948L52.3556 150.273L52.5895 149.606L52.8048 148.948L53.0014 148.298L53.1794 147.655L53.3389 147.017L53.4798 146.386L53.6023 145.759L53.7063 145.137L53.7919 144.518L53.8591 143.901L53.9079 143.287L53.9384 142.675L53.9505 142.063L53.9442 141.451L53.9196 140.839L53.8766 140.225L53.8153 139.61L53.7356 138.992L53.6374 138.37L53.5208 137.745L53.3858 137.115L53.2322 136.48L53.0601 135.839L52.8694 135.191L52.6601 134.535L52.4321 133.871L52.1854 133.199L51.92 132.517L51.6357 131.824L51.3327 131.121L51.0108 130.405L50.6701 129.677L50.3105 128.936L49.9321 128.18L49.5348 127.409L49.1187 126.623L48.684 125.82L48.2305 125L47.7586 124.161L47.2683 123.304L46.7597 122.426L46.2332 121.529L45.689 120.609L45.1273 119.668L44.5486 118.704L43.9533 117.716L43.3419 116.704L42.7149 115.667L42.073 114.604L41.4169 113.514L40.7474 112.398L40.0656 111.254L39.3723 110.082L38.6687 108.883L37.9562 107.654L37.2361 106.397L36.51 105.111L35.7795 103.796L35.0465 102.453L34.313 101.081L33.5812 99.6811L32.8533 98.2542L32.1319 96.801L31.4196 95.3225L30.7193 93.82L30.034 92.2948L29.3669 90.7489L28.7213 89.184L28.1007 87.6025L27.5087 86.0069L26.949 84.4L26.4254 82.7848L25.9418 81.1647L25.5023 79.5432L25.1106 77.9241L24.7708 76.3117L24.4866 74.7101L24.262 73.124L24.1005 71.5579L24.0056 70.0168L23.9805 68.5054L24.0281 67.0288L24.151 65.5919L24.3516 64.1997L24.6317 62.8569L24.9926 61.5684L25.4355 60.3384L25.9608 59.1713L26.5684 58.0709L27.2579 57.0408L28.0281 56.0842L28.8776 55.2038L29.8041 54.4019L30.8053 53.6801L31.8781 53.0398L33.0191 52.4817L34.2245 52.0061L35.4903 51.6126L36.8121 51.3004L38.1852 51.0684L39.6049 50.9148L41.0663 50.8375L42.5644 50.834L44.0943 50.9015L45.6511 51.0369L47.2298 51.2368L48.8258 51.4977L50.4345 51.8158L52.0514 52.1873L53.6724 52.6082L55.2936 53.0748L56.9112 53.5829L58.5218 54.1286L60.1223 54.7083L61.7097 55.3179L63.2815 55.954L64.8352 56.6129L66.3689 57.2914L67.8807 57.986L69.3689 58.6939L70.8324 59.4119L72.2698 60.1376L73.6804 60.8681L75.0634 61.6012L76.4182 62.3347L77.7445 63.0664L79.042 63.7944L80.3107 64.5171L81.5506 65.2328L82.7619 65.9401L83.9448 66.6376L85.0996 67.3241L86.2268 67.9986L87.3268 68.6601L88.4003 69.3078L89.4477 69.9408L90.4699 70.5585L91.4673 71.1603L92.4409 71.7456L93.3912 72.3141L94.3191 72.8653L95.2253 73.3989L96.1106 73.9146L96.9759 74.4122L97.8218 74.8915L98.6493 75.3523L99.4591 75.7945L100.252 76.218L101.029 76.6228L101.79 77.0087L102.537 77.3758L103.271 77.724L103.991 78.0534L104.7 78.364L105.396 78.6557L106.083 78.9286L106.759 79.1827L107.426 79.4182L108.085 79.6349L108.736 79.833L109.379 80.0125L110.017 80.1735L110.649 80.3159L111.276 80.4398L111.899 80.5453L112.518 80.6324L113.135 80.701L113.749 80.7513L114.362 80.7832L114.973 80.7968L115.585 80.792L116.197 80.7688L116.811 80.7273L117.426 80.6674L118.044 80.5892L118.665 80.4925L119.29 80.3774L119.92 80.2438L120.554 80.0917L121.195 79.9211L121.843 79.7319L122.498 79.5241L123.16 79.2976L123.832 79.0524L124.514 78.7884L125.205 78.5057L125.908 78.2041L126.623 77.8838L127.35 77.5445L128.09 77.1865L128.845 76.8095L129.614 76.4138L130.399 75.9992L131.201 75.5659L132.02 75.114L132.857 74.6435L133.713 74.1546L134.588 73.6476L135.484 73.1225L136.402 72.5796L137.341 72.0194L138.304 71.442L139.29 70.848L140.3 70.2379L141.335 69.6121L142.396 68.9713L143.483 68.3164L144.598 67.648L145.739 66.967L146.909 66.2746L148.106 65.5719L149.332 64.86L150.587 64.1405L151.871 63.4148L153.184 62.6846L154.525 61.9517L155.895 61.2182L157.292 60.4861L158.717 59.7579L160.168 59.0359L161.644 58.3228L163.145 57.6214L164.669 56.9349L166.213 56.2662L167.776 55.6188L169.357 54.996L170.951 54.4016L172.557 53.8392L174.172 53.3126L175.792 52.8257L177.414 52.3825L179.033 51.9868L180.646 51.6428L182.249 51.3541L183.836 51.1246L185.404 50.9579L186.947 50.8576L188.461 50.8268L189.941 50.8685L191.381 50.9853L192.777 51.1797L194.124 51.4533L195.417 51.8078L196.652 52.2442L197.824 52.7629L198.93 53.364L199.966 54.0469L200.928 54.8108L201.815 55.6539L202.623 56.5744L203.351 57.5698L203.998 58.637L204.563 59.7727L205.045 60.9731L205.445 62.2342L205.764 63.5517L206.002 64.9208L206.162 66.337L206.245 67.7952L206.254 69.2906L206.193 70.8182L206.062 72.3729L205.868 73.9501L205.611 75.5449L205.298 77.1526L204.93 78.769L204.513 80.3899L204.05 82.0111L203.545 83.6291L203.002 85.2404L202.425 86.8418L201.818 88.4303L201.184 90.0034L200.526 91.5587L199.849 93.094L199.156 94.6075L198.449 96.0977L197.732 97.5631L197.006 99.0027L196.276 100.415L195.543 101.801L194.81 103.158L194.078 104.486L193.349 105.786L192.626 107.057L191.91 108.299L191.202 109.513L190.504 110.698L189.816 111.855L189.141 112.984L188.478 114.086L187.829 115.162L187.195 116.211L186.576 117.236L185.973 118.235L185.386 119.21L184.816 120.162L184.264 121.092L183.729 122L183.212 122.887L182.713 123.754L182.232 124.601L181.77 125.43L181.326 126.241L180.901 127.035L180.495 127.814L180.107 128.576L179.739 129.325L179.389 130.059L179.058 130.78L178.746 131.49L178.453 132.187L178.178 132.874L177.923 133.551L177.686 134.219L177.467 134.878L177.268 135.53L177.087 136.174L176.924 136.812L176.781 137.445L176.655 138.072L176.548 138.695L176.46 139.315L176.39 139.931L176.338 140.546L176.304 141.159L176.289 141.771L176.288 141.965Z" fill="#E7B10A" fill-opacity="0.78"/>
<path fill-rule="evenodd" clip-rule="evenodd" d="M230.009 123.994L230.141 125.153L230.508 126.319L231.07 127.5L231.786 128.698L232.616 129.917L233.521 131.159L234.46 132.422L235.392 133.706L236.279 135.006L237.079 136.317L237.754 137.634L238.268 138.947L238.587 140.249L238.681 141.528L238.522 142.775L238.09 143.978L237.37 145.127L236.352 146.212L235.035 147.222L233.421 148.15L231.523 148.989L229.357 149.733L226.945 150.379L224.315 150.927L221.496 151.377L218.523 151.731L215.431 151.995L212.255 152.174L209.03 152.276L205.79 152.309L202.567 152.283L199.392 152.207L196.289 152.092L193.284 151.949L190.396 151.787L187.644 151.617L185.042 151.449L182.602 151.292L180.335 151.156L178.247 151.049L176.346 150.98L174.636 150.958L173.123 150.992L171.811 151.089L170.704 151.261L169.807 151.516L169.127 151.866L168.672 152.323L168.45 152.9L168.475 153.614L168.763 154.483L169.334 155.529L170.213 156.78L171.432 158.267L173.031 160.029L175.06 162.115L177.583 164.584L180.677 167.511L184.444 170.989L189.011 175.136L194.54 180.105L201.241 186.093L206.241 191.062L197.417 185.911L190.132 181.675L184.085 178.188L179.046 175.324L174.836 172.982L171.314 171.085L168.37 169.573L165.915 168.395L163.878 167.515L162.204 166.902L160.844 166.532L159.762 166.386L158.926 166.45L158.311 166.712L157.896 167.164L157.661 167.8L157.593 168.615L157.677 169.605L157.902 170.769L158.257 172.105L158.732 173.612L159.317 175.288L160.003 177.13L160.779 179.138L161.635 181.306L162.56 183.629L163.542 186.101L164.567 188.711L165.621 191.449L166.689 194.299L167.754 197.244L168.798 200.264L169.804 203.335L170.752 206.432L171.624 209.527L172.402 212.588L173.067 215.585L173.604 218.486L173.997 221.259L174.236 223.874L174.31 226.302L174.214 228.518L173.945 230.503L173.503 232.239L172.894 233.716L172.124 234.931L171.205 235.883L170.15 236.581L168.974 237.038L167.696 237.272L166.334 237.307L164.906 237.169L163.432 236.889L161.93 236.501L160.418 236.039L158.913 235.541L157.43 235.043L155.984 234.583L154.585 234.2L153.245 233.932L151.973 233.819L150.776 233.9L149.661 234.216L148.624 234.78L147.646 235.558L146.709 236.512L145.798 237.606L144.897 238.803L143.993 240.065L143.076 241.353L142.134 242.627L141.159 243.85L140.145 244.981L139.087 245.982L137.98 246.818L136.824 247.452L135.62 247.855L134.37 248L133.079 247.865L131.753 247.434L130.399 246.698L129.025 245.654L127.642 244.304L126.259 242.661L124.886 240.739L123.534 238.562L122.211 236.156L120.926 233.551L119.686 230.782L118.498 227.882L117.365 224.889L116.292 221.838L115.281 218.762L114.33 215.696L113.441 212.668L112.611 209.708L111.837 206.839L111.116 204.083L110.443 201.459L109.812 198.984L109.22 196.671L108.659 194.532L108.123 192.576L107.607 190.812L107.103 189.247L106.605 187.889L106.105 186.743L105.595 185.819L105.069 185.123L104.516 184.666L103.928 184.459L103.294 184.518L102.602 184.86L101.839 185.508L100.989 186.49L100.033 187.841L98.9505 189.604L97.7135 191.833L96.29 194.595L94.64 197.975L92.7136 202.08L90.448 207.043L87.7635 213.036L84.5574 220.278L80.6963 229.054L79.6766 228.625L81.7075 219.271L83.3675 211.541L84.7157 205.125L85.7979 199.787L86.65 195.341L87.3003 191.643L87.7709 188.576L88.0788 186.05L88.2376 183.992L88.2574 182.341L88.1458 181.049L87.9083 180.079L87.5487 179.398L87.0693 178.98L86.4711 178.804L85.7542 178.851L84.918 179.106L83.9613 179.556L82.8824 180.19L81.6796 180.998L80.351 181.969L78.8952 183.094L77.3112 184.363L75.5988 185.765L73.7586 187.289L71.7928 188.922L69.705 190.65L67.5007 192.456L65.1873 194.322L62.7747 196.23L60.2752 198.157L57.7035 200.079L55.0768 201.972L52.4148 203.809L49.7394 205.564L47.074 207.21L44.4436 208.72L41.8737 210.071L39.39 211.238L37.0172 212.203L34.7787 212.948L32.6953 213.463L30.7848 213.74L29.0614 213.775L27.5348 213.573L26.2103 213.14L25.0881 212.488L24.1639 211.634L23.4284 210.599L22.8679 209.405L22.4648 208.078L22.198 206.645L22.0433 205.133L21.9741 203.571L21.9618 201.986L21.9766 200.405L21.987 198.854L21.9612 197.356L21.8662 195.936L21.6683 194.614L21.3327 193.411L20.8232 192.347L20.1053 191.437L19.1832 190.669L18.0859 190.014L16.8432 189.444L15.4856 188.932L14.0444 188.453L12.5518 187.985L11.0413 187.503L9.5473 186.988L8.10469 186.419L6.74854 185.778L5.51346 185.049L4.43285 184.219L3.53811 183.278L2.8578 182.216L2.41679 181.03L2.23546 179.718L2.32903 178.282L2.707 176.727L3.37284 175.062L4.32387 173.298L5.55133 171.448L7.04078 169.526L8.7726 167.551L10.7227 165.539L12.8636 163.507L15.1647 161.473L17.5943 159.454L20.1194 157.463L22.7074 155.516L25.3265 153.622L27.9464 151.794L30.5385 150.038L33.0769 148.361L35.5379 146.766L37.9006 145.258L40.1464 143.836L42.2592 142.501L44.2249 141.251L46.0314 140.084L47.6678 138.996L49.1245 137.985L50.3925 137.046L51.4632 136.175L52.3276 135.365L52.9759 134.614L53.3973 133.915L53.5791 133.264L53.5062 132.654L53.1603 132.081L52.519 131.538L51.5548 131.021L50.234 130.521L48.515 130.033L46.346 129.548L43.6631 129.057L40.3862 128.55L36.4155 128.014L31.625 127.433L25.8551 126.788L18.9021 126.053L10.5041 125.197L0.320312 124.176L7.47291 123.096L16.3984 122.193L23.7799 121.423L29.9021 120.753L34.9854 120.154L39.2022 119.605L42.6881 119.091L45.5507 118.596L47.8757 118.11L49.7319 117.624L51.1746 117.129L52.2484 116.617L52.9893 116.083L53.4267 115.52L53.5844 114.923L53.4819 114.285L53.1353 113.602L52.558 112.868L51.7614 112.078L50.7554 111.227L49.5493 110.31L48.1517 109.322L46.5715 108.259L44.8182 107.118L42.9019 105.895L40.8346 104.587L38.6295 103.193L36.3021 101.712L33.8703 100.145L31.3541 98.4935L28.7763 96.762L26.1623 94.9558L23.5398 93.0822L20.9385 91.1507L18.3898 89.1724L15.9262 87.1604L13.5806 85.1294L11.3854 83.0953L9.37134 81.075L7.56718 79.086L5.99817 77.1458L4.68543 75.2711L3.64512 73.4777L2.88785 71.7796L2.41827 70.1888L2.23486 68.7143L2.33002 67.3625L2.69029 66.1363L3.29687 65.0355L4.12625 64.0563L5.15094 63.192L6.34037 62.4325L7.66166 61.7652L9.08053 61.175L10.562 60.6445L12.071 60.1544L13.5729 59.6841L15.0341 59.2113L16.4218 58.7127L17.7044 58.1637L18.8512 57.5384L19.8324 56.8095L20.6183 55.9481L21.191 54.9317L21.578 53.771L21.816 52.485L21.9401 51.0938L21.9843 49.6186L21.9819 48.082L21.9651 46.5077L21.9654 44.9212L22.0133 43.3487L22.1378 41.8179L22.3662 40.3565L22.7234 38.9926L23.2316 37.7534L23.9097 36.6649L24.7726 35.7512L25.831 35.0332L27.0908 34.5289L28.5534 34.2519L30.215 34.2111L32.0672 34.4109L34.0973 34.8503L36.2886 35.5236L38.621 36.4201L41.072 37.5249L43.6172 38.8192L46.2311 40.2813L48.8881 41.8868L51.563 43.6099L54.2317 45.4239L56.8719 47.302L59.4631 49.2177L61.9874 51.1456L64.4291 53.0617L66.7752 54.9437L69.0152 56.7712L71.1408 58.5255L73.146 60.1901L75.0264 61.7502L76.7797 63.1925L78.4046 64.505L79.9011 65.6769L81.2701 66.6981L82.5128 67.5589L83.631 68.2495L84.6264 68.7596L85.5009 69.0783L86.2556 69.1931L86.8916 69.0895L87.4089 68.7506L87.8069 68.1559L88.0836 67.281L88.2358 66.096L88.2586 64.5644L88.145 62.6413L87.8859 60.2714L87.4688 57.3862L86.8779 53.9003L86.0928 49.7068L85.0874 44.6708L83.8284 38.6213L82.2734 31.3391L80.368 22.5412L79.3018 15.7596L83.406 25.0969L86.8046 32.7931L89.6428 39.1574L92.0322 44.428L94.059 48.7898L95.7911 52.3881L97.282 55.3372L98.5746 57.728L99.7035 59.6329L100.697 61.1097L101.578 62.2051L102.367 62.9562L103.08 63.3931L103.731 63.5401L104.333 63.4163L104.896 63.0377L105.43 62.4167L105.944 61.5639L106.446 60.4879L106.944 59.1965L107.445 57.6967L107.957 55.9953L108.486 54.0996L109.038 52.0177L109.62 49.7588L110.238 47.334L110.897 44.7561L111.602 42.0406L112.359 39.2054L113.17 36.2713L114.041 33.2623L114.971 30.205L115.963 27.129L117.017 24.0663L118.131 21.0508L119.302 18.1178L120.526 15.3031L121.797 12.6423L123.109 10.1694L124.453 7.91611L125.82 5.91049L127.201 4.17628L128.585 2.73182L129.963 1.58946L131.324 0.755053L132.66 0.22775L133.963 0L135.227 0.0578312L136.446 0.381331L137.617 0.945314L138.739 1.72011L139.813 2.67245L140.841 3.76635L141.827 4.96397L142.779 6.22638L143.703 7.51426L144.61 8.7884L145.51 10.01L146.417 11.1411L147.344 12.144L148.307 12.9819L149.323 13.6177L150.412 14.0148L151.583 14.1664L152.832 14.1106L154.151 13.8878L155.532 13.5373L156.965 13.098L158.438 12.608L159.937 12.1056L161.448 11.6282L162.955 11.2127L164.44 10.8948L165.885 10.7082L167.27 10.6846L168.578 10.8523L169.788 11.236L170.883 11.8555L171.847 12.7259L172.665 13.8565L173.327 15.2504L173.823 16.9051L174.147 18.8119L174.298 20.9565L174.278 23.3196L174.091 25.8776L173.745 28.6033L173.253 31.4668L172.627 34.4369L171.883 37.4814L171.039 40.5688L170.113 43.6682L169.124 46.7507L168.089 49.7896L167.029 52.7608L165.96 55.6431L164.9 58.4181L163.864 61.0703L162.867 63.5873L161.923 65.9588L161.044 68.177L160.241 70.2361L159.525 72.1318L158.907 73.861L158.396 75.4216L158.001 76.8121L157.734 78.0312L157.604 79.0772L157.622 79.9482L157.802 80.6412L158.158 81.1523L158.708 81.4757L159.47 81.6037L160.471 81.526L161.738 81.2292L163.308 80.6958L165.224 79.9038L167.538 78.825L170.318 77.4238L173.645 75.6555L177.622 73.4631L182.38 70.7747L188.084 67.4986L194.946 63.5171L203.242 58.6785L203.664 59.7346L196.535 66.097L190.659 71.3668L185.805 75.7578L181.799 79.4347L178.502 82.5257L175.807 85.1317L173.628 87.3326L171.898 89.1922L170.563 90.7622L169.579 92.0842L168.913 93.1925L168.538 94.1154L168.431 94.8764L168.575 95.4952L168.957 95.9886L169.567 96.3711L170.395 96.6554L171.436 96.8526L172.683 96.973L174.133 97.026L175.78 97.0208L177.621 96.966L179.65 96.8701L181.861 96.7421L184.247 96.5907L186.799 96.4251L189.504 96.2547L192.35 96.0893L195.32 95.939L198.394 95.8141L201.549 95.725L204.76 95.6819L207.998 95.695L211.231 95.7739L214.427 95.9274L217.55 96.1633L220.564 96.4882L223.436 96.9072L226.13 97.4236L228.614 98.0387L230.861 98.7521L232.847 99.5611L234.553 100.461L235.965 101.446L237.078 102.508L237.893 103.637L238.415 104.825L238.659 106.059L238.643 107.329L238.393 108.625L237.937 109.935L237.309 111.252L236.545 112.566L235.682 113.87L234.76 115.159L233.818 116.429L232.898 117.678L232.04 118.904L231.283 120.109L230.668 121.295L230.234 122.465L230.023 123.625L230.009 123.994Z" fill="#898121" fill-opacity="0.9"/>
<path d="M130.503 86.6552L139.169 91.2032C148.493 96.0962 153.155 98.5426 155.744 102.939C158.333 107.335 158.333 112.806 158.333 123.746V124.253C158.333 135.194 158.333 140.665 155.744 145.061C153.155 149.457 148.493 151.904 139.169 156.797L130.503 161.345C122.895 165.337 119.091 167.333 114.999 167.333C110.907 167.333 107.104 165.337 99.4959 161.345L90.8293 156.797C81.5054 151.904 76.8434 149.457 74.2547 145.061C71.666 140.665 71.666 135.194 71.666 124.253V123.746C71.666 112.806 71.666 107.335 74.2547 102.939C76.8434 98.5426 81.5054 96.0962 90.8293 91.2032L99.4959 86.6552C107.104 82.6628 110.907 80.6666 114.999 80.6666C119.091 80.6666 122.895 82.6628 130.503 86.6552Z" stroke="white" stroke-width="5.5" stroke-linecap="round"/>
<path d="M154 104.5L136.667 113.167M136.667 113.167C136.667 113.167 135.346 113.827 134.5 114.25C126.885 118.058 115 124 115 124M136.667 113.167V128.333M136.667 113.167L95.5 91.5M115 124L76 104.5M115 124V165.167" stroke="white" stroke-width="5.5" stroke-linecap="round"/>
</svg>
