<svg width="311" height="245" viewBox="0 0 311 245" fill="none" xmlns="http://www.w3.org/2000/svg">
<rect width="311" height="245" rx="16" fill="#898121" fill-opacity="0.15"/>
<path d="M207.996 183.13C207.914 185.504 206.644 187.464 205.149 187.464C204.272 187.464 203.47 186.788 202.944 185.748C202.635 185.901 202.324 186.055 202.009 186.209C202.708 187.601 203.844 188.49 205.149 188.49C206.692 188.49 208.013 188.403 209.275 187.208C210.704 185.856 211.198 183.575 210.9 181.518C209.982 182.04 209.015 182.579 207.996 183.131V183.13Z" fill="#898121"/>
<path d="M117.195 179.78C115.78 178.233 112.842 178.638 112.154 179.053C108.356 180.462 108.583 188.526 112.497 189.428C113.723 189.711 115.749 189.475 117.012 188.281C119.206 186.204 119.074 181.834 117.195 179.78ZM110.449 184.188C110.449 181.867 111.666 179.906 113.105 179.906C114.544 179.906 115.76 181.868 115.76 184.188C115.76 186.509 114.544 188.472 113.105 188.472C111.666 188.472 110.449 186.51 110.449 184.188Z" fill="#898121"/>
<path d="M157.133 202.443C155.834 201.023 154.193 201.164 152.746 201.289C149.877 201.542 148.408 204.535 148.408 207.415C148.408 210.708 150.257 213.387 152.529 213.387C154.222 213.387 155.593 213.285 156.929 212.022C159.378 209.706 159.265 204.772 157.133 202.443ZM149.432 207.415C149.432 204.732 150.85 202.467 152.528 202.467C154.206 202.467 155.623 204.732 155.623 207.415C155.623 210.097 154.206 212.363 152.528 212.363C150.85 212.363 149.432 210.097 149.432 207.415Z" fill="#898121"/>
<path d="M247.171 121.096C219.741 107.097 191.534 96.9046 163.437 90.5885C159.456 86.055 154.622 80.6573 150.582 76.2252C146.029 71.2304 142.114 66.7532 137.503 64.2102C137.415 62.6142 136.307 61.4437 134.422 60.9742C132.692 60.5448 130.913 60.9127 129.344 61.2397C121.573 62.8541 73.9019 72.6664 66.4307 75.6574C64.8962 76.2713 64.0106 76.7941 63.5781 78.3429C63.0215 80.3426 63.1219 83.8225 65.09 85.2985C66.0576 86.0252 67.3696 85.8869 68.4325 85.2821C69.5938 84.949 71.118 84.5267 72.9312 84.0326C74.6429 85.6901 73.783 84.7635 94.531 107.895C94.6991 125.962 98.3122 146.399 105.074 162.524C105.13 162.658 105.074 162.612 106.881 164.179C107.43 166.61 108.109 170.191 109.887 175.335C110.848 178.116 113.283 179.653 115.638 181.142C127.687 188.762 139.724 195.685 152.013 202.009C152.182 201.972 152.354 201.953 152.53 201.953C153.536 201.953 154.446 202.577 155.1 203.582C156.061 204.067 157.022 204.548 157.985 205.026C159.99 206.019 162.232 207.084 164.515 207.084C172.808 207.084 203.566 192.543 209.639 189.37C211.407 188.445 215.32 186.866 216.066 184.857C216.75 183.019 214.956 181.754 213.281 180.76C216.591 178.852 219.819 176.831 222.957 174.699C223.563 174.285 238.548 148.531 247.423 121.712C247.504 121.468 247.391 121.207 247.17 121.093L247.171 121.096ZM69.1028 83.2137C68.5012 84.3688 66.7289 85.2473 65.705 84.4785C64.2884 83.4156 64.0106 80.6091 64.5652 78.6186C64.846 77.6131 65.503 76.9468 66.5639 76.9468C67.347 76.9468 68.0932 77.3363 68.4673 77.7791C69.5508 79.0645 69.6563 82.1518 69.1028 83.2137ZM163.477 91.6484C191.088 97.8794 218.767 107.933 245.778 121.54C232.561 127.857 219.175 133.567 205.46 137.621C204.713 137.841 194.548 141.247 181.105 144.375C174.95 142.803 168.614 141.09 162.215 139.159C163.147 123.619 163.547 107.854 163.476 91.6494L163.477 91.6484ZM133.476 165.929C127.116 162.786 120.86 159.189 114.858 155.013C114.264 149.091 113.87 143.146 113.673 137.198C120.145 141.227 126.874 144.712 133.707 147.767C133.445 153.816 133.367 159.875 133.476 165.929ZM133.498 167.083C133.61 172.23 133.856 177.369 134.236 182.49C128.314 179.043 122.522 175.195 116.95 170.999C116.163 166.141 115.512 161.256 114.995 156.353C120.971 160.453 127.188 163.99 133.498 167.083ZM133.756 146.664C126.884 143.574 120.125 140.047 113.634 135.964C113.481 130.584 113.49 125.203 113.664 119.834C120.512 123.906 127.669 127.431 134.959 130.523C134.411 135.884 134.01 141.269 133.756 146.664ZM178.522 162.682C185.98 160.879 193.355 158.787 200.622 156.415C198.704 162.467 196.719 168.523 194.679 174.552C187.983 176.888 181.177 178.958 174.281 180.751C175.849 174.923 177.265 168.894 178.522 162.682ZM173.207 180.796C166.929 178.958 160.427 176.917 153.865 174.541C155.043 168.607 156.147 162.65 157.172 156.689C164.065 158.925 170.887 160.863 177.489 162.619C176.22 168.872 174.792 174.937 173.207 180.796ZM178.744 161.573C179.795 156.283 180.732 150.862 181.554 145.32C189.413 143.485 197.26 141.315 205.066 138.821C204.875 143.436 203.214 148.199 201.002 155.212C193.685 157.62 186.257 159.743 178.744 161.573ZM177.691 161.612C171.081 159.853 164.247 157.911 157.347 155.668C158.264 150.284 159.118 144.899 159.904 139.524C166.889 141.679 173.813 143.564 180.523 145.282C179.696 150.851 178.751 156.298 177.691 161.612ZM156.362 155.345C149.168 152.977 141.909 150.278 134.76 147.112C135.007 141.706 135.403 136.311 135.946 130.94C143.533 134.114 151.256 136.829 158.912 139.216C158.128 144.585 157.276 149.967 156.361 155.345H156.362ZM134.712 148.212C141.822 151.343 149.037 154.019 156.187 156.367C155.165 162.318 154.065 168.264 152.89 174.186C146.765 171.939 140.593 169.391 134.508 166.435C134.389 160.363 134.458 154.282 134.712 148.212ZM152.688 175.203C151.675 180.274 150.607 185.326 149.486 190.348C144.713 188.2 139.972 185.779 135.31 183.11C134.915 177.95 134.656 172.772 134.534 167.586C140.548 170.485 146.641 172.989 152.687 175.203H152.688ZM153.663 175.558C160.204 177.923 166.682 179.954 172.938 181.785C171.472 187.128 169.875 192.297 168.152 197.276C162.257 195.556 156.326 193.372 150.443 190.773C151.57 185.728 152.644 180.652 153.664 175.557L153.663 175.558ZM173.973 181.889C180.83 180.122 187.6 178.084 194.261 175.782C192.515 180.918 190.728 186.032 188.908 191.104C182.579 193.482 176.026 195.512 169.268 197.182C170.959 192.263 172.53 187.16 173.973 181.889ZM195.489 175.354C202.158 173.012 208.715 170.406 215.14 167.544C213.295 172.347 211.35 177.105 209.308 181.807C203.194 185.127 196.807 188.069 190.169 190.624C191.979 185.567 193.754 180.471 195.489 175.354ZM195.907 174.12C197.938 168.102 199.913 162.059 201.822 156.02C208.594 153.778 215.272 151.291 221.835 148.568C219.927 154.492 217.866 160.372 215.657 166.189C209.203 169.095 202.611 171.742 195.907 174.12ZM202.202 154.814C204.322 148.074 205.986 143.287 206.102 138.488C213.119 136.218 220.104 133.687 227.033 130.9C225.569 136.387 223.971 141.855 222.244 147.287C215.673 150.037 208.986 152.549 202.202 154.814ZM161.168 138.84C138.396 131.891 114.91 122.131 96.0347 106.06C112.556 100.061 130.551 95.6244 149.531 92.8456C153.795 92.2214 158.198 91.5295 162.45 91.5172C162.523 107.768 162.104 123.254 161.168 138.84ZM75.957 83.2147C94.9349 78.1112 134.019 68.0621 135.023 67.4922C135.558 67.1888 136.196 66.826 136.691 66.3247C140.826 69.3208 143.381 72.6152 159.312 90.608C156 90.8346 152.699 91.347 149.385 91.8308C130.394 94.6024 112.385 99.0448 95.844 105.039C91.7697 100.397 80.4065 87.4992 75.957 83.2147ZM95.5488 106.992C100.927 111.553 106.67 115.606 112.659 119.231C112.476 124.581 112.453 129.942 112.592 135.302C106.971 131.698 101.561 127.67 96.4652 123.138C95.8789 117.735 95.5642 112.305 95.5488 106.992ZM96.6364 124.655C101.703 129.076 107.066 133.013 112.626 136.54C112.806 142.447 113.182 148.351 113.751 154.234C108.899 150.781 104.221 146.94 99.7995 142.643C98.424 136.831 97.3569 130.767 96.6364 124.655ZM105.973 162.021C103.739 156.675 101.815 150.746 100.251 144.494C104.589 148.593 109.159 152.269 113.886 155.585C114.381 160.443 115.009 165.286 115.769 170.103C112.414 167.532 109.142 164.834 105.973 162.021ZM215.106 184.5C214.523 186.069 210.604 187.709 209.164 188.462C201.111 192.669 171.359 206.393 164.27 206.055C162.327 205.964 160.554 205.156 158.44 204.108C144.144 197.026 130.081 189.081 116.607 180.544C114.274 179.066 111.751 177.596 110.855 175.001C109.761 171.836 108.862 168.573 108.174 165.29C125.508 180.016 146.622 192.152 168.335 198.399C168.423 198.424 168.509 198.425 168.598 198.404C184.324 194.6 198.963 188.877 212.27 181.339C213.463 182.114 215.609 183.149 215.106 184.5ZM222.288 173.916C218.571 176.436 214.731 178.8 210.774 181.003C212.766 176.368 214.664 171.68 216.466 166.951C220.96 164.918 225.388 162.761 229.743 160.479C227.332 165.132 224.83 169.65 222.289 173.916H222.288ZM230.56 158.889C226.109 161.254 221.58 163.488 216.98 165.592C219.16 159.8 221.195 153.946 223.078 148.05C228.489 145.775 233.82 143.339 239.062 140.747C236.461 146.825 233.59 152.955 230.56 158.89V158.889ZM239.679 139.294C234.372 141.948 228.971 144.439 223.487 146.765C225.196 141.345 226.777 135.893 228.224 130.419C234.217 127.981 240.169 125.352 246.068 122.537C244.249 127.925 242.087 133.578 239.679 139.294Z" fill="#898121"/>
<path d="M172.039 134.987C185.404 129.357 195.283 117.357 198.804 103.883C201.025 95.3814 200.89 85.6142 207.329 73.4013C209.589 69.1147 212.695 64.1455 217.065 61.8475C218.48 61.1033 219.999 60.8276 221.543 60.4894C221.908 60.4094 221.933 59.7852 221.543 59.7247C218.825 59.3065 216.066 60.8809 214.029 62.5496C211.766 64.4028 209.978 66.8064 208.473 69.2951C198.626 85.566 200.975 96.7323 196.638 108.377C192.281 120.076 183.112 129.729 172.009 134.909C171.966 134.929 171.997 135.005 172.042 134.986L172.039 134.987Z" fill="#898121"/>
<path d="M237.427 53.7058C236.697 53.5982 235.946 53.6474 235.235 53.8493C235.164 53.4598 235.001 53.0887 234.743 52.7884C234.836 52.4276 234.873 51.8854 235.444 51.1956C235.624 50.9772 235.594 50.6544 235.376 50.474C235.159 50.2936 234.835 50.3243 234.655 50.5416C234.252 51.0295 233.966 51.6004 233.815 52.2103C232.43 51.8864 231.6 52.647 231.339 53.6084C229.821 52.1785 228.207 50.8368 226.526 49.6099C225.805 49.083 225.133 49.0584 224.426 50.0353C223.51 51.297 222.548 52.9411 223.253 54.4745C223.636 55.3089 224.376 55.8122 225.242 56.0971C224.525 57.7802 225.342 59.6979 227.436 60.0413C227.26 60.2883 227.099 60.5261 226.956 60.7527C226.799 61.0017 226.507 61.4661 226.574 61.9991C226.676 62.8047 227.716 63.8143 229.269 63.8143C231.589 63.8143 233.073 61.7069 233.246 59.3371C233.32 58.3357 233.187 57.3568 232.998 56.4015C233.88 56.4261 234.876 55.8163 235.165 54.946C235.183 54.9419 235.199 54.9368 235.215 54.9307C235.873 54.6898 236.586 54.616 237.279 54.7195C237.556 54.7605 237.819 54.5678 237.86 54.287C237.901 54.0061 237.708 53.7468 237.427 53.7058ZM224.183 54.0471C223.702 52.9975 224.503 51.6742 225.254 50.638C225.492 50.3089 225.596 50.2731 225.63 50.2731C225.842 50.2372 229.23 52.9955 231.056 54.7554C229.377 55.5836 225.028 55.887 224.182 54.0481L224.183 54.0471ZM226.121 57.938C225.93 57.4645 225.974 56.8833 226.27 56.3339C226.691 56.3954 227.121 56.421 227.536 56.421C228.6 56.421 229.939 56.2785 231.011 55.886C229.891 57.0391 228.933 58.1123 228.168 59.0737C227.326 59.0911 226.431 58.7098 226.122 57.939L226.121 57.938ZM232.225 59.2623C232.127 60.601 231.577 61.7203 230.714 62.3332C229.878 62.9267 228.494 63.0046 227.765 62.1754C227.518 61.8945 227.53 61.7654 227.823 61.3C228.409 60.3714 229.594 58.7847 231.95 56.3882C232.147 57.3435 232.294 58.3121 232.224 59.2633L232.225 59.2623ZM233.919 55.0219C233.044 55.6676 232.478 55.394 232.311 54.574C232.17 53.8852 232.437 53.1646 233.209 53.1646C233.719 53.1646 234.083 53.3768 234.216 53.9733C234.29 54.3013 234.256 54.7718 233.919 55.0209V55.0219Z" fill="#898121"/>
<path d="M174.747 65.2463C173.98 62.7853 173.012 59.9624 171.168 58.1389C171.233 57.1857 171.128 56.2078 170.96 55.2976C168.706 43.1463 157.502 31.8774 145.252 29.5927C144.472 29.4471 144.127 30.6177 144.92 30.7971C151.988 32.4032 158.291 36.083 163.041 41.5862C167.671 46.9521 170.167 53.7376 170.258 57.3794C169.478 56.8444 168.583 56.5102 167.615 56.5748C166.022 56.6814 164.318 57.7361 163.886 59.3454C163.478 60.8675 164.504 62.3527 166.01 62.6715C167.943 63.0815 170.206 62.0688 170.933 59.5258C172.371 61.3246 173.301 64.127 173.94 66.2908C176.447 74.7901 176.048 83.9812 173.512 92.4231C171.042 100.645 166.617 108.061 161.332 114.77C160.707 115.564 160.076 116.351 159.459 117.15C159.294 117.363 159.645 117.618 159.827 117.434C165.199 112.048 171.11 102.874 174.107 93.7198C177.097 84.5829 177.63 74.4815 174.748 65.2453L174.747 65.2463ZM168.668 61.2898C167.577 61.9591 165.587 62.1293 164.981 60.7168C164.321 59.1773 166.196 57.8458 167.529 57.7013C168.54 57.5916 169.437 58.0477 170.178 58.717C170.014 59.7625 169.58 60.7291 168.668 61.2898Z" fill="#898121"/>
<path d="M140.881 25.5254C142.052 24.1693 142.484 22.1716 141.784 19.8367C141.479 18.8199 141.047 18.0839 140.465 17.5868C140.25 17.4033 139.93 17.4279 139.745 17.6401C137.552 20.1616 135.963 22.6892 134.283 25.4393C133.559 24.6931 132.072 24.4492 131.189 25.1349C130.877 25.0211 130.148 24.9104 129.306 24.1488C129.096 23.9582 128.772 23.9746 128.583 24.1847C128.393 24.3948 128.409 24.7187 128.619 24.9094C129.167 25.4055 129.818 25.7817 130.52 26.0092C130.348 26.4141 130.295 26.8005 130.339 27.1644C130.325 27.1767 130.312 27.189 130.3 27.2023C129.913 27.6246 129.419 27.9352 128.87 28.0992C128.598 28.1802 128.444 28.4651 128.525 28.7367C128.604 29.0022 128.886 29.1631 129.163 29.0811C129.769 28.9007 130.324 28.585 130.789 28.1607C131.317 28.7378 132.124 29.0842 132.935 28.9264C133.127 28.8884 133.309 28.8228 133.478 28.7347C133.395 30.2896 133.255 32.9874 132.459 37.5835C132.404 37.9023 132.653 38.1862 132.969 38.1831C136.99 38.1473 140.089 34.283 139.689 30.9569C141.206 30.673 142.117 29.6992 142.34 28.6383C142.606 27.3766 141.874 26.1917 140.881 25.5244V25.5254ZM140.151 18.742C140.413 19.0905 140.629 19.5486 140.803 20.1298C141.983 24.0627 139.501 26.985 134.976 26.2706C136.635 23.5502 138.116 21.1558 140.151 18.7409V18.742ZM131.566 27.4873C131.289 27.2105 131.319 26.781 131.438 26.4705C131.839 25.4362 133.228 25.6792 133.613 26.2306C134.145 26.9932 132.862 28.7829 131.566 27.4873ZM133.581 37.1079C134.426 31.9737 134.495 28.584 134.586 27.7527C135.561 27.7589 136.852 28.1607 137.75 29.1139C140.193 31.7041 137.569 36.5452 133.581 37.1079ZM141.339 28.4272C141.159 29.2831 140.299 29.8212 139.459 29.9698C139.259 29.4122 138.943 28.8843 138.497 28.4108C138.086 27.9752 137.613 27.6328 137.118 27.3735C138.27 27.2546 139.285 26.8661 140.094 26.2593C141.074 26.781 141.498 27.6748 141.339 28.4272Z" fill="#898121"/>
</svg>
