<svg width="32" height="32" viewBox="0 0 32 32" fill="none" xmlns="http://www.w3.org/2000/svg">
<path d="M7.40725 24H24.5924C27.2106 24 29.3332 21.8775 29.3332 19.2592V16C29.3332 14.5272 28.1393 13.3334 26.6665 13.3334C25.1937 13.3334 23.9998 14.5272 23.9998 16V17.6C23.9998 18.1891 23.5222 18.6667 22.9332 18.6667H9.0665C8.4774 18.6667 7.99984 18.1891 7.99984 17.6V16C7.99984 14.5272 6.80593 13.3334 5.33317 13.3334C3.86041 13.3334 2.6665 14.5272 2.6665 16V19.2592C2.6665 21.8775 4.78901 24 7.40725 24Z" stroke="#898121" stroke-width="2.5"/>
<path d="M26.6668 13.3333C26.6668 12.0942 26.6668 11.4747 26.5643 10.9595C26.1435 8.8438 24.4896 7.18995 22.374 6.76911C21.8588 6.66663 21.2392 6.66663 20.0002 6.66663H12.0002C10.7611 6.66663 10.1415 6.66663 9.62635 6.76911C7.51067 7.18995 5.85682 8.8438 5.43598 10.9595C5.3335 11.4747 5.3335 12.0942 5.3335 13.3333" stroke="#898121" stroke-width="2.5"/>
<path d="M26.6668 25.3333V24M5.3335 25.3333V24" stroke="#898121" stroke-width="2.5" stroke-linecap="round"/>
</svg>
