<svg width="28" height="28" viewBox="0 0 28 28" fill="none" xmlns="http://www.w3.org/2000/svg">
<path d="M25.6665 17.5H19.3875L18.2208 15.1666H23.3332C23.6426 15.1666 23.9393 15.0437 24.1581 14.8249C24.3769 14.6061 24.4998 14.3094 24.4998 14V2.33329C24.4998 2.02387 24.3769 1.72713 24.1581 1.50833C23.9393 1.28954 23.6426 1.16663 23.3332 1.16663H4.6665C4.35708 1.16663 4.06034 1.28954 3.84155 1.50833C3.62275 1.72713 3.49984 2.02387 3.49984 2.33329V14C3.49984 14.3094 3.62275 14.6061 3.84155 14.8249C4.06034 15.0437 4.35708 15.1666 4.6665 15.1666H9.77884L8.61217 17.5H2.33317C2.02375 17.5 1.72701 17.6229 1.50821 17.8417C1.28942 18.0605 1.1665 18.3572 1.1665 18.6666V25.6666C1.1665 25.976 1.28942 26.2728 1.50821 26.4916C1.72701 26.7104 2.02375 26.8333 2.33317 26.8333H25.6665C25.9759 26.8333 26.2727 26.7104 26.4915 26.4916C26.7103 26.2728 26.8332 25.976 26.8332 25.6666V18.6666C26.8332 18.3572 26.7103 18.0605 26.4915 17.8417C26.2727 17.6229 25.9759 17.5 25.6665 17.5ZM5.83317 3.49996H22.1665V12.8333H5.83317V3.49996ZM12.3875 15.1666H15.6122L16.7788 17.5H11.2208L12.3875 15.1666ZM3.49984 19.8333H12.8332V24.5H3.49984V19.8333ZM24.4998 24.5H15.1665V19.8333H24.4998V24.5Z" fill="#898121"/>
</svg>
