<svg width="32" height="32" viewBox="0 0 32 32" fill="none" xmlns="http://www.w3.org/2000/svg">
<path d="M29.565 11.4782C29.565 8.60137 27.2245 6.26088 24.3476 6.26088C23.2376 6.26088 22.1813 6.60919 21.309 7.23481C21.2514 6.92031 21.2172 6.59463 21.2172 6.26088C21.2172 3.82831 23.0224 1.75725 23.0388 1.73869C23.6381 1.06794 23.1607 0 22.2607 0H9.73895C8.83945 0 8.36107 1.06756 8.96076 1.73869C8.97901 1.75906 10.7824 3.80594 10.7824 6.26088C10.7824 6.59356 10.7478 6.919 10.6894 7.23387C9.81738 6.60881 8.76145 6.26088 7.65195 6.26088C4.77507 6.26088 2.43457 8.60137 2.43457 11.4782C2.43457 13.7262 3.84926 15.6592 5.87738 16.3873C5.68413 17.1413 5.56501 17.9451 5.56501 18.7826C5.56501 21.5745 6.87282 24.2712 7.96988 26.0418C9.28388 28.1624 9.85088 29.3396 10.3158 30.2694C10.8494 31.3369 11.9223 32 13.1157 32H18.8839C20.0773 32 21.1502 31.3369 21.6838 30.2696C22.1812 29.2726 22.7346 28.1319 24.0297 26.0419C25.1268 24.2713 26.4346 21.5746 26.4346 18.7826C26.4346 17.9451 26.3154 17.1413 26.1222 16.3873C28.1504 15.6592 29.565 13.7262 29.565 11.4782ZM20.2933 2.08694C19.9717 2.67231 19.6521 3.38112 19.4294 4.17387H12.5703C12.3476 3.38112 12.028 2.67231 11.7064 2.08694H20.2933ZM19.4296 8.34781H12.57C12.7517 7.70113 12.8693 6.99894 12.8693 6.26088H19.1302C19.1303 6.99894 19.2479 7.70113 19.4296 8.34781ZM4.52157 11.4782C4.52157 9.75212 5.92588 8.34781 7.65201 8.34781C8.52538 8.34781 9.34319 8.70788 9.92963 9.33106C9.48726 10.1589 9.02651 10.7066 8.96713 10.7758C8.78288 10.9719 7.5117 12.3647 6.57695 14.4204C5.3657 13.9811 4.52157 12.8239 4.52157 11.4782ZM19.8171 29.3363C19.6393 29.692 19.2817 29.913 18.8839 29.913H13.1157C12.7179 29.913 12.3604 29.692 12.1824 29.3362C11.8323 28.636 11.6944 28.3474 11.4131 27.8191H20.5867C20.288 28.3812 20.0743 28.8209 19.8171 29.3363ZM21.7701 25.7391H10.2287C9.68951 24.8391 9.08601 23.9482 8.49738 22.5262L11.8259 17.5334L15.1317 22.4919C15.5433 23.1096 16.4549 23.112 16.8681 22.4919L20.1738 17.5334L23.5024 22.5262C22.9114 23.9534 22.2941 24.865 21.7701 25.7391ZM24.2608 19.9017L21.0419 15.0734C20.6303 14.4557 19.7187 14.4533 19.3054 15.0734L15.9998 20.0319L12.6941 15.0733C12.2824 14.4556 11.3709 14.4532 10.9576 15.0733L7.73876 19.9016C7.68326 19.5304 7.65195 19.1559 7.65195 18.7826C7.65195 15.2311 10.4656 12.2283 10.4927 12.1999C10.5009 12.1912 10.5091 12.1824 10.5171 12.1735C10.5645 12.1204 11.1379 11.4688 11.7067 10.4333C11.7171 10.4335 20.2826 10.4335 20.2929 10.4333C20.8617 11.4688 21.4351 12.1204 21.4825 12.1735C21.4905 12.1824 21.4986 12.1912 21.5069 12.1999C22.4084 13.1414 24.3476 15.8588 24.3476 18.7826C24.3476 19.1559 24.3163 19.5304 24.2608 19.9017ZM25.4227 14.4203C24.4863 12.3611 23.2124 10.967 23.0316 10.7747C22.9681 10.7016 22.5079 10.1587 22.0668 9.3345C22.6535 8.70931 23.4726 8.34787 24.3476 8.34787C26.0737 8.34787 27.478 9.75219 27.478 11.4783C27.4781 12.8239 26.6339 13.9811 25.4227 14.4203Z" fill="#898121"/>
<path d="M11.8262 23.6522C12.4025 23.6522 12.8697 23.185 12.8697 22.6087C12.8697 22.0324 12.4025 21.5652 11.8262 21.5652C11.2499 21.5652 10.7827 22.0324 10.7827 22.6087C10.7827 23.185 11.2499 23.6522 11.8262 23.6522Z" fill="#898121"/>
<path d="M20.1739 23.6522C20.7502 23.6522 21.2174 23.185 21.2174 22.6087C21.2174 22.0324 20.7502 21.5652 20.1739 21.5652C19.5976 21.5652 19.1304 22.0324 19.1304 22.6087C19.1304 23.185 19.5976 23.6522 20.1739 23.6522Z" fill="#898121"/>
<path d="M16 16C16.5764 16 17.0435 15.5328 17.0435 14.9565C17.0435 14.3802 16.5764 13.913 16 13.913C15.4237 13.913 14.9565 14.3802 14.9565 14.9565C14.9565 15.5328 15.4237 16 16 16Z" fill="#898121"/>
</svg>
